<?xml version="1.0" encoding="UTF-8"?>
<svg id="Camada_1" data-name="Camada 1" xmlns="http://www.w3.org/2000/svg" viewBox="0 0 322.38 368">
  <defs>
    <style>
      .cls-1 {
        fill: #e11c52;
      }

      .cls-1, .cls-2 {
        fill-rule: evenodd;
      }

      .cls-2 {
        fill: #192536;
      }
    </style>
  </defs>
  <path class="cls-2" d="M180.21,145.66c.49.55.52,1.42,1.01,1.97.3.34,18.53,5.08,19.43,6.69.72,1.28.19,1.58-2.43,6.94-.74,1.5-2.09,3.35-2.56,4.35-3.61,7.64-3.88,7.49-4.19,8.15-4.03,8.55-5.61,10.01-6.81,12.47-3.36,6.93-4.98,9-9.26,17.4-.45.88-4.8,9.44-5.68,10.96-.64,1.11-.71,1.06-.73,1.16-.15.79.37.74.22,1.53-.32.23-1.28.2-2.51,2.47-6.62,12.09-8.19,15.22-8.87,16.57-3.97,7.87-4.42,7.61-8.63,16.15-.07.14-.81,1.64-1.06,1.7-.17.04-1.4-.46-1.55-.65-.44-.54,0-.72-3-8.17-3.16-7.86-7.59-20.2-7.97-20.73-1.15-1.59-2.46-1.02-8.63,1.5-25.13,10.27-43.96,31.97-45.54,62.34-.2,3.74-.61,6.74,1.45,7.2.38.08,105.91.31,110.61-.14,14.32-1.39,18.3-3.1,24.61-5.98,9.12-4.16,14.27-11.17,15.2-12.44,9.11-12.39,8.18-36.79-7.33-49.8-2.69-2.26-.12-2.58,3.16-3.85,10.49-4.07,21.4-9.33,25.74-11.92,3.23-1.92,13.01-8.26,18.31-12.43,14.08-11.07,13.62-14.89,16.82-12.34,3.56,2.85,9.4,9.6,9.64,9.86,7.41,8.39,15.25,23.7,18,33.4.14.49,8.64,24.97,2.5,55.3-3.81,18.84-12.92,31.7-14.64,34.12-7.13,10.07-10.01,12.16-18.62,19.41-2.47,2.08-10.73,7.66-15.5,10.09-3.21,1.64-17.89,10.35-44.07,15.34-23.64,4.5-23.79,3.55-72.73,3.69-32.43,0-64.87,0-97.3,0-49.01,0-48.99.06-53.25-.04-4.02-.09-3.41-1.76-3.4-8.81.03-53.69-.24-53.69.29-63.5.36-6.68.2-6.68,1.01-13.32.3-2.48,2.08-20.43,11.1-41.06,19.66-44.94,54.06-65.51,76.18-76.35,11.38-5.57,19.45-8.05,19.99-8.84.91-1.32-.96-4.47-3.6-12.08-2.48-7.12-2.74-7.01-4.44-12.17-2.43-7.37-3.07-7.43-2.77-8.21.09-.23.39-.31.58-.47.53-.47.6-.4,1.27-.21.99.29.97.32,12.33,3.8,2.36.72,6.09,2.09,12.35,3.9,30.63,8.83,37.74,11.16,40.99,12.23,11.87,3.89,12.78,2.88,14.29,2.79h0Z"/>
  <path class="cls-1" d="M180.21,145.66c7.62-1.62,30.71-4.64,37.15-26.1,1.94-6.45,2.94-20.56-3.56-30.69-12.35-19.25-38.99-16.78-52.04-16.84-7.81-.04-77.31-.02-77.87.02-3.19.22-2.46,2.88-2.46,6.46,0,1.02.11,65.74-.05,66.51-.67,3.19-2.18,1.92-17.13,10.97-2.47,1.49-2.57,1.31-7.05,4.34-9.27,6.28-10.82,7.39-18.67,14.09-9.16,7.81-16.16,14.52-25.46,26.88-.44.58-7.82,11.15-9.09,13.4-2.37,4.22-1.92,4.86-3.07,4.87-1.61.02-.6-1.03-.65-14.07C.2,188.83.2,1.92.25,1.76.82,0,1.17.14,3.02.04,4.32-.03,85.9.02,114.65,0c67.77-.04,68.81.02,74.79.34,36.36,1.93,56.52,11.38,67.35,17.13,19.58,10.41,29.48,25.19,31.35,27.98,1.76,2.62,4.74,6.46,8.67,16.71,2.25,5.87,5.47,14.95,6.51,33.73.97,17.64-3.33,31.26-4.15,33.86-2.41,7.65-2.85,10.35-8.88,20.73-2.8,4.83-2.85,4.79-6.17,9.28-1.82,2.45-6.24,9.12-17.76,19.26-.5.44-10.66,8.56-15.45,11.19-6.94,3.83-15.07,10.27-40.98,18.48-16.01,5.07-20.18,5.36-29.7,7.24-.57.11-.57.05-7.18,1.05-.31.05-.97.15-3.84.28.15-.79-.37-.74-.22-1.53.02-.11.09-.06.73-1.16.88-1.52,5.23-10.08,5.68-10.96,4.27-8.4,5.89-10.47,9.26-17.4,1.19-2.46,2.78-3.93,6.81-12.47.31-.66.59-.51,4.19-8.15.47-1.01,1.83-2.85,2.56-4.35,2.63-5.35,3.15-5.66,2.43-6.94-.9-1.61-19.13-6.35-19.43-6.69-.49-.55-.52-1.42-1.01-1.97h0Z"/>
</svg>