<?xml version="1.0" encoding="UTF-8"?>
<svg id="Camada_1" data-name="Camada 1" xmlns="http://www.w3.org/2000/svg" viewBox="0 0 1878.53 281.74">
  <defs>
    <style>
      .cls-1 {
        fill: #1b2636;
      }

      .cls-1, .cls-2, .cls-3, .cls-4, .cls-5 {
        fill-rule: evenodd;
      }

      .cls-2 {
        fill: #1c2737;
      }

      .cls-3 {
        fill: #1b2637;
      }

      .cls-4 {
        fill: #e11c52;
      }

      .cls-5 {
        fill: #192536;
      }
    </style>
  </defs>
  <g>
    <path class="cls-5" d="M132.1,118.05c.36.41.38,1.04.74,1.45.22.25,13.58,3.72,14.24,4.91.52.94.14,1.16-1.78,5.08-.54,1.1-1.53,2.45-1.88,3.19-2.64,5.6-2.84,5.49-3.07,5.97-2.95,6.26-4.11,7.34-4.99,9.14-2.47,5.08-3.65,6.6-6.78,12.75-.33.65-3.52,6.92-4.16,8.04-.47.81-.52.78-.53.85-.11.58.27.54.16,1.12-.23.17-.93.15-1.84,1.81-4.85,8.87-6.01,11.16-6.5,12.14-2.91,5.77-3.24,5.58-6.32,11.84-.05.1-.59,1.2-.78,1.24-.12.03-1.03-.33-1.14-.47-.32-.4,0-.53-2.2-5.99-2.31-5.76-5.56-14.81-5.84-15.19-.85-1.17-1.8-.75-6.32,1.1-18.42,7.53-32.23,23.44-33.38,45.69-.14,2.74-.44,4.94,1.06,5.28.28.06,77.63.23,81.08-.1,10.5-1.02,13.41-2.27,18.04-4.39,6.68-3.05,10.46-8.19,11.14-9.12,6.68-9.08,5.99-26.97-5.37-36.51-1.97-1.65-.09-1.89,2.32-2.83,7.69-2.98,15.69-6.84,18.87-8.73,2.37-1.41,9.53-6.05,13.43-9.11,10.32-8.12,9.99-10.92,12.33-9.04,2.61,2.09,6.89,7.04,7.06,7.23,5.43,6.15,11.18,17.37,13.2,24.49.1.36,6.33,18.31,1.83,40.54-2.79,13.81-9.47,23.24-10.73,25.01-5.23,7.39-7.34,8.92-13.65,14.23-1.81,1.52-7.86,5.61-11.36,7.4-2.36,1.2-13.12,7.59-32.3,11.25-17.33,3.3-17.44,2.6-53.31,2.71-23.77,0-47.55,0-71.33,0-35.93,0-35.91.04-39.04-.03-2.94-.07-2.5-1.29-2.49-6.46.02-39.36-.18-39.35.21-46.55.27-4.9.15-4.9.74-9.76.22-1.82,1.52-14.97,8.13-30.1,14.41-32.95,39.63-48.02,55.85-55.97,8.34-4.08,14.26-5.9,14.65-6.48.67-.97-.7-3.27-2.64-8.85-1.81-5.22-2.01-5.14-3.25-8.92-1.78-5.4-2.25-5.45-2.03-6.02.07-.17.29-.22.42-.34.39-.35.44-.3.93-.15.73.21.71.23,9.04,2.79,1.73.53,4.46,1.53,9.05,2.86,22.45,6.47,27.67,8.18,30.05,8.96,8.7,2.85,9.37,2.11,10.48,2.04h0Z"/>
    <path class="cls-4" d="M132.1,118.05c5.58-1.19,22.51-3.4,27.23-19.13,1.42-4.73,2.16-15.07-2.61-22.49-9.05-14.11-28.58-12.3-38.15-12.35-5.73-.03-56.67-.02-57.08.01-2.34.16-1.8,2.11-1.8,4.74,0,.75.08,48.19-.04,48.76-.49,2.34-1.6,1.41-12.56,8.04-1.81,1.09-1.89.96-5.17,3.18-6.79,4.61-7.93,5.42-13.69,10.33-6.71,5.73-11.84,10.64-18.66,19.7-.32.42-5.73,8.17-6.66,9.82-1.74,3.09-1.41,3.56-2.25,3.57-1.18.01-.44-.76-.48-10.31-.05-12.22-.05-149.24-.01-149.35.42-1.29.67-1.19,2.03-1.26.95-.05,60.75-.01,81.83-.02,49.67-.03,50.44.02,54.82.25,26.65,1.42,41.43,8.34,49.37,12.56,14.35,7.63,21.61,18.46,22.98,20.51,1.29,1.92,3.48,4.73,6.36,12.25,1.65,4.3,4.01,10.96,4.77,24.73.71,12.93-2.44,22.91-3.04,24.82-1.77,5.61-2.09,7.59-6.51,15.2-2.06,3.54-2.09,3.51-4.52,6.8-1.33,1.8-4.58,6.68-13.02,14.12-.37.32-7.82,6.27-11.32,8.21-5.09,2.81-11.05,7.53-30.04,13.54-11.74,3.72-14.79,3.93-21.77,5.31-.42.08-.42.04-5.26.77-.22.03-.71.11-2.82.2.11-.58-.27-.54-.16-1.12.01-.08.06-.04.53-.85.64-1.11,3.83-7.39,4.16-8.04,3.13-6.16,4.32-7.68,6.78-12.75.88-1.8,2.04-2.88,4.99-9.14.23-.49.43-.37,3.07-5.97.35-.74,1.34-2.09,1.88-3.19,1.92-3.92,2.31-4.15,1.78-5.08-.66-1.18-14.02-4.65-14.24-4.91-.36-.41-.38-1.04-.74-1.45h0Z"/>
  </g>
  <path class="cls-4" d="M906.79,279.02c-45.5.06-45.69.05-49.66-.16-6.52-.34-7.18-2.49-20.94-20.15-12.88-16.53-19.78-25.81-22.63-29.22-14.4-17.23-16.94-25.62-21.73-22.88-.64.37-11.65,11.43-19,19.3-4.31,4.61-3.4,5.36-3.53,27.83-.12,21.88,1.16,24.74-4.66,25.22-1.72.14-41.56.08-45.18.08-2.78,0-6.23-.01-6.6-5-.26-3.49,0-159.87.02-173.77.12-74.78-.22-74.74.09-81.23.02-.37.15-3.11,2.2-4.04,1.42-.65,35.85-.3,44.93-.27,6.84.03,8.98-.27,9.06,6.54,0,.32.08,107.97.09,117.37,0,13.3-.44,13.27-.51,18.1-.04,2.86-.32,3.9,2.56,3.88.18,0,2.89-1.93,3.58-2.74,12.08-14.05,46.22-46.19,62.85-63.49,8.26-8.59,9.4-7.3,19.41-7.28,47.75.11,47.72-.23,51.87-.17,1.98.03,2.51-.01,2.61,1.97.08,1.77-.17,1.74-1.49,2.94-1.43,1.31-27.88,27.65-46.35,46.63-7.24,7.44-7.34,7.27-18.08,18.04-6.35,6.38-10.97,8.81-7.07,13.99,6.3,8.36,6.58,8.1,12.89,16.41,1.64,2.15,18.72,24.64,20.41,26.94,9.09,12.38,9.3,12.18,18.5,24.46,24.9,33.24,25.44,32.82,27.46,35.82,2.04,3.02.64,4.42.37,4.69-.11.11-.12.37-11.48.18h0Z"/>
  <path class="cls-4" d="M602.12,281.74c-9.12-.09-16.54.16-35.99-5.86-31.42-9.72-45.28-28.09-52.37-37.71-12.94-17.57-29.31-61.57-2.7-106.75,9.56-16.23,23.55-25.68,25.33-27,38.22-28.57,92.15-22.06,114.97-10.08,19.7,10.35,24.57,16.45,35.28,32.4,4.62,6.88-.29,7.7-14.08,15.04-24.97,13.31-25.07,14.01-27.82,13.3-3.95-1.03-2.08-7.12-15.72-16.17-35.34-23.46-70.58,3.14-74.13,31.35-.25,2.01-6.14,35.31,17.38,54.76,14.08,11.64,46.98,18.7,67.86-7.64,2.17-2.74,4.26-6.82,6.83-7.56,2.73-.78,7.49,2.38,12.02,4.68,2.3,1.16,28.25,14.3,28.67,14.68.26.23,1.87,1.65,1.54,4.1-.41,3.06-13.13,22.41-23.84,29.6-5.54,3.72-17.12,13.39-43.05,17.35-10.06,1.54-10.03,1.34-20.2,1.52h0Z"/>
  <path class="cls-4" d="M362.75,135.43c-40.35,6.62-38.88,45.59-39.03,68.64-.17,27.77.28,70.69-.24,71.94-1.52,3.67-3.07,2.99-30.59,3.01-20.05.02-23.86.58-25-2.64q-.56-1.57-.71-178.38c0-.48-.31-6.96.73-9.13,1.04-2.16,1.8-1.71,31.76-1.76,16.86-.03,17.49-.2,18.79.91.38.33,2.68,0,1.46,16.76-.25,3.38-1.06,5.01,2.35,4.76,2.71-.2,1.26-2.34,10.77-9.9,12.59-10.02,29.75-13.97,38.91-14.36.88-.04,9.98-.42,11.04,0,3.52,1.4,3.09,2.15,3.14,5.94.25,17.9,0,35.33-.04,38.4-.12,8.56-4.82,5.4-14.21,5.39-5.95,0-5.92.15-9.13.42h0Z"/>
  <path class="cls-4" d="M455.41,278.97c-18.8.19-38.26-.05-38.4-.06-6.35-.49-5.05-3.47-5.09-25.19-.02-13.01-.29-161.63-.13-162.6.68-4.37,4.06-4.11,5.26-4.11,21.95-.16,41.51.09,45.12.14,5.11.06,5.37,3.13,5.41,6.32.1,9.57-.08,173.79.1,178.32.35,8.78-3.47,7.04-12.26,7.18h0Z"/>
  <path class="cls-4" d="M441.9,0c5.07.36,9.21.22,18.06,5.41,16.23,9.52,20.44,35.19,3.9,48.98-21.81,18.19-63.16,5.02-57.84-28.56,1.14-7.21,6.07-14.89,10.89-18.27C427.48.16,433.68.11,441.9,0h0Z"/>
  <path class="cls-1" d="M1782.26,84.74c10.93.48,12.51.73,13.59.9,23.01,3.66,30.62,8.43,42.89,16.1,6.07,3.79,26.43,19.61,35.17,47.76,10.51,33.88,6.18,92.2-46.03,118.09-2.89,1.43-19.86,9.85-38.84,10.66-21.18.9-57.96-1.18-85.34-36.82-25.05-32.6-23.55-78.27-9.04-105.5,28.43-53.37,81.9-51.11,87.59-51.19h0ZM1773.32,116.04c-6.31.97-25.58,2.61-41.36,23.66-20.23,27-15.89,74.55,11.88,95.35,4.89,3.66,17.93,14.07,45.25,11.94,13.61-1.06,36.11-9.18,47.91-34.31,17.57-37.42,1.11-84.55-38.87-95.29-9.16-2.46-22.82-1.49-24.81-1.35h0Z"/>
  <path class="cls-3" d="M1301.52,84.73c6.49.4,25.73.49,47.61,14.52,3.36,2.16,21.84,14,31.63,38.59.1.25,8.59,17.99,8.28,47.49-.09,8.24-4.02,6.66-19.8,6.67-9.93,0-104.48.06-124.13-.03-5.87-.03-7.29,1-6.05,6.77,4.34,20.15,18.79,35.03,30.87,40.77,6.09,2.89,16.21,8.56,36.08,8.05,32.92-.84,49.44-20.24,50.27-20.8,4.54-3.05,8.26,3.7,9.42,5.06,10.02,11.73,13.51,11.57,10.56,16.87-1.77,3.17-13.74,12.71-16.72,14.53-28.17,17.16-80.19,24.81-119.6-4.8-7.7-5.79-37.65-27.3-36.37-82.15.14-6.1,2.42-25.64,8.42-38.01.97-2,6.16-16.27,21.32-30.23,25.25-23.25,58.29-23.32,63.72-23.34,1.5,0,3,.05,4.49.04h0ZM1297.02,114.39c-7.55.2-28.39.29-45.73,20.79-7.87,9.31-13.61,25.81-12.07,29.4,1.09,2.52,2.01,1.99,30.72,2.07,6.49.02,80.07.21,81.08-.16,1.78-.67,7.1-2.67-3.14-23.51-1.18-2.4-8.43-13.8-19.4-20.62-5.79-3.6-12.05-5.32-13.16-5.62-9.07-2.49-16.58-2.3-18.31-2.34h0Z"/>
  <path class="cls-1" d="M963.99,171.67c-.24-3.04-1.81-22.57-.13-38.16.96-8.91,5.43-25.09,6.15-27.1,5.26-14.67,11.57-24.54,20.18-36.11,23.34-31.35,63.77-44.89,87.98-46.72,10.02-.76,62.25-6.14,101.63,30.7,5.96,5.57,7.97,6.42,4.35,11.42-.46.63-14.21,15.07-14.21,15.07-5.62,5.34-6.75,1.73-16.92-6.57-25.33-20.67-54.14-20.02-59.13-19.91-42.35.96-64.7,24.85-67.46,27.49-39.32,37.52-42.2,120.52,24.79,155.05,29.43,15.17,63.85,8.16,69.57,6.53,40.18-11.47,39.65-32.02,48.77-23.07,2.85,2.8,2.65,2.94,5.48,5.77,8.85,8.87,13.42,10.53,10.7,15.24-.25.42-5.53,6.2-11.17,11.04-23.02,19.74-56.13,25.31-69.36,25.9-42.21,1.89-61.39-8.1-74.35-14.21-21.22-10-39.37-29.28-47.86-42.37-15.66-24.16-17.77-43.64-19-49.98h0Z"/>
  <path class="cls-2" d="M1619.76,86.68c18.06.07,18.01-.06,36.1.02,1.12,0,5.61-.61,6.2,3.92.15,1.12.11,19.27.04,20.19-.03.36-.26,3.01-2.01,4.03-2.47,1.44-37.44.44-47.08.86-2.62.11-2.86-.13-4.51,1.95-.72.91-.76,8.27-.76,8.99-.45,87.8-.25,89.37.73,97.07,3.44,27.2,28.4,24.94,31.59,24.65,14.74-1.34,19.47-9.76,23.32-4.96.3.37,8.65,17.94,8.51,20.94-.03.62-.16,3.26-5.26,5.75-12.22,5.96-19.22,6.71-26.57,7.72-16.85,2.32-38.54-3.53-49.3-13.82-20.62-19.71-16.86-43.24-17.05-92.16-.21-53.44.3-54.18-1.91-55.48-2.41-1.43-24.08-.2-26.56-.76-3.83-.87-3.66-3.57-3.61-22.76,0-4.11-.18-4.94,3.75-6.08.29-.08,19.77-.03,22.51-.12,5.91-.19,5.8-3.15,5.83-7.38.19-27,0-26.99.05-29.34.01-.53.11-4.55,3.31-5.7,1.85-.67,1.92-.22,24.62-.19,4.08,0,4.89-.15,6.01,3.78.16.54-.03,32.67.05,33.8.49,6.41,5.24,5.12,12,5.11h0Z"/>
  <path class="cls-1" d="M1434.68,86.72c20.29.05,22.82-.4,24.26,1.9,1.95,3.12-.26,23.29.81,24.31,1.59,1.52,3.58-.18,3.81-.38.76-.65,5.69-14.54,32.23-23.8,5.06-1.77,27.92-6.83,30.3-1.03.63,1.55.83,2.03.67,20.87,0,.51-.05,5.41-.46,6.4-2.2,5.3-15.19-2.19-37.34,9.57-4.15,2.21-15.21,11.2-20.72,24.51-9.57,23.12-6.77,37.55-7.13,119.76-.03,7.99-4.21,6.68-15.14,6.69-13.61.02-17.16.19-18.25-2.04-1.36-2.81-.67-2.97-.76-29.46-.04-12.1-.36-102.45-.05-151.23.04-6.58,2.97-5.94,7.76-6.07h0Z"/>
</svg>